<svg width="704" height="703" viewBox="0 0 704 703" fill="none" xmlns="http://www.w3.org/2000/svg">
<path d="M388.472 173.207C416.594 175.474 440.772 182.557 465.073 197.011C482.556 207.404 498.269 220.477 515.562 231.098V500.689C515.561 605.772 434.819 691.988 331.994 700.717L331.712 700.753C237.1 712.443 163.591 644.446 109.061 589.916C54.5718 535.432 0.0827606 520.535 0 520.513C32.2691 502.913 89.7799 461.51 138.802 470.939C197.768 482.279 218.121 540.342 314.788 547.774C340.797 547.774 361.886 526.692 361.886 500.689V200.463C361.886 185.622 373.717 173.569 388.472 173.207ZM372.222 1.3252C466.836 -10.3635 540.349 57.6315 594.874 112.164C649.406 166.689 703.932 181.569 703.932 181.569C671.664 199.168 614.159 240.564 565.129 231.137C506.17 219.797 485.816 161.739 389.145 154.303C363.136 154.303 342.054 175.39 342.054 201.392C342.054 301.16 342.051 400.921 342.051 500.689C342.051 515.527 330.214 527.586 315.464 527.943C287.342 525.678 263.163 518.59 238.863 504.143C221.377 493.748 205.663 480.671 188.378 470.05V201.392C188.378 96.3101 269.115 10.0915 371.938 1.36133L372.222 1.3252Z" fill="url(#paint0_linear_1717_139)"/>
<defs>
<linearGradient id="paint0_linear_1717_139" x1="165.5" y1="18" x2="476.5" y2="667" gradientUnits="userSpaceOnUse">
<stop stop-color="#FFA200"/>
<stop offset="1" stop-color="#C2370D"/>
</linearGradient>
</defs>
</svg>
